<svg id="Layer_1" data-name="Layer 1" xmlns="http://www.w3.org/2000/svg" xmlns:xlink="http://www.w3.org/1999/xlink" viewBox="0 0 540.9 540.3">
  <defs>
    <filter id="filter-2" x="-13.12" y="-4" width="107" height="107" name="filter-2">
      <feOffset result="shadowOffsetOuter1" dy="8" in="SourceAlpha"/>
      <feGaussianBlur result="shadowBlurOuter1" stdDeviation="5" in="shadowOffsetOuter1"/>
      <feColorMatrix values="0 0 0 0 0 0 0 0 0 0 0 0 0 0 0 0 0 0 0.05 0" in="shadowBlurOuter1"/>
    </filter>
    <linearGradient id="linear-gradient" x1="-358.11" y1="679.93" x2="-357.41" y2="679.7" gradientTransform="matrix(-207.24, -358.95, -146.7, 84.7, 26031.16, -185748.02)" gradientUnits="userSpaceOnUse">
      <stop offset="0" stop-color="#472293"/>
      <stop offset="1" stop-color="#486fb5"/>
    </linearGradient>
    <mask id="mask" x="55.27" y="70.28" width="414.73" height="439.63" maskUnits="userSpaceOnUse">
      <g transform="translate(-9.6 -2)">
        <g id="mask-5">
          <path id="path-4" d="M426.3,412.3l53.1-6.4A239.1,239.1,0,0,1,411.3,473c-110.8,72.2-259.2,41-331.4-69.8l-15,8.6,29.5-69.3,74.9,9.1-18.8,10.8a158.1,158.1,0,0,0,220,40,156.4,156.4,0,0,0,36.6-35.1Z" fill="#fff"/>
        </g>
      </g>
    </mask>
    <linearGradient id="linear-gradient-2" x1="-357.87" y1="680.34" x2="-357.44" y2="680.12" gradientTransform="matrix(400, 0, 0, -400, 143311, 272351.28)" gradientUnits="userSpaceOnUse">
      <stop offset="0" stop-color="#fff"/>
      <stop offset="1" stop-color="#fff" stop-opacity="0"/>
    </linearGradient>
    <linearGradient id="linear-gradient-3" x1="-356.64" y1="679.69" x2="-357" y2="680.55" gradientTransform="matrix(-111.68, -193.43, -316.08, 182.49, 175300.3, -192969.92)" xlink:href="#linear-gradient"/>
    <mask id="mask-2" x="70" y="31.49" width="440.47" height="438.79" maskUnits="userSpaceOnUse">
      <g transform="translate(-9.6 -2)">
        <g id="mask-9">
          <path id="path-8" d="M509.1,389.4l-74.8,9.1-29.6-69.3L423.5,340c37.4-78.9,3.6-173.2-75.4-210.5a155.8,155.8,0,0,0-48.7-14.1l29.4-39.2L296.7,33.5a239,239,0,0,1,92.2,25.4c118,59.8,165.1,203.9,105.2,321.9Z" fill="#fff"/>
        </g>
      </g>
    </mask>
    <linearGradient id="linear-gradient-4" x1="-357.61" y1="679.9" x2="-357.59" y2="680.55" xlink:href="#linear-gradient-2"/>
    <linearGradient id="linear-gradient-5" x1="-356.79" y1="680.65" x2="-357.54" y2="679.96" gradientTransform="matrix(-135.92, -235.41, -313.36, 180.92, 164859.72, -206741.51)" xlink:href="#linear-gradient"/>
    <mask id="mask-3" x="31.38" y="14" width="439" height="456" maskUnits="userSpaceOnUse">
      <g transform="translate(-9.6 -2)">
        <g id="mask-13">
          <path id="path-12" d="M267.6,16l45.2,60.2-45.2,60.3V114.8c-87.1,7.1-151.9,83.5-144.7,170.5a157.3,157.3,0,0,0,12.2,49.2l-48.7-5.9L65.5,377.8a238,238,0,0,1-24.1-92.5c-7.2-132,94.1-244.9,226.2-252Z" fill="#fff"/>
        </g>
      </g>
    </mask>
    <linearGradient id="linear-gradient-6" x1="-357.37" y1="680.36" x2="-357.8" y2="680.07" gradientTransform="matrix(400, 0, 0, -400, 143311.38, 272351)" xlink:href="#linear-gradient-2"/>
    <linearGradient id="linear-gradient-7" x1="-357" y1="680.5" x2="-357" y2="679.5" gradientTransform="matrix(240, 0, 0, -240, 85951.38, 163471)" gradientUnits="userSpaceOnUse">
      <stop offset="0" stop-color="#c9dcef"/>
      <stop offset="1" stop-color="#fdfeff"/>
    </linearGradient>
    <filter id="filter-17" x="-29.02" y="-15.9" width="138.9" height="138.9" name="filter-17">
      <feOffset result="shadowOffsetOuter1" dy="10" in="SourceAlpha"/>
      <feGaussianBlur result="shadowBlurOuter1" stdDeviation="10" in="shadowOffsetOuter1"/>
      <feColorMatrix values="0 0 0 0 0 0 0 0 0 0 0 0 0 0 0 0 0 0 0.1 0" in="shadowBlurOuter1"/>
    </filter>
  </defs>
  <title>1-wheel_Maaling&amp;amp;optimering</title>
  <g id="Page-2">
    <g id="Homepage">
      <g id="content">
        <g id="TRIGGERS">
          <line id="topTrigger" class="topTrigger" x1="0" y1="170" x2="270" y2="170" strok-width="0px" stroke="rgba(255, 255, 255, 0)"/>
          <line id="centralTrigger" class="centralTrigger" x1="0" y1="270" x2="270" y2="270" strok-width="0px" stroke="rgba(255, 255, 255, 0)"/>
          <line id="bottomTrigger" class="bottomTrigger" x1="0" y1="445" x2="270" y2="445" strok-width="0px" stroke="rgba(255, 255, 255, 0)"/>
        </g>
        <g id="wheel">
          <g id="section_1" data-name="section#1">
            <g id="wheel-2" data-name="wheel">
              <g id="base">
                <g filter="url(#filter-2)">
                  <circle id="path-1" cx="270.4" cy="270" r="270"/>
                </g>
                <circle id="path-1-2" data-name="path-1" cx="270.4" cy="270" r="270" fill="#fff"/>
              </g>
              <g id="arrows">

                  <g id="arrow_0">
                    <path id="path-8-2-grey" data-name="path-8" d="M267.1,14.9l45.3,60.3-45.2,60.2V113.7c-87,7.1-151.8,83.5-144.6,170.6a158.7,158.7,0,0,0,12.2,49.2l-48.6-5.9-21,49.2A238.5,238.5,0,0,1,41,284.3c-7.2-132.1,94.1-245,226.1-252.1Z" transform="rotate(120, 270, 270) translate(-9.6 -2)" fill="#c2c2c2"/>
                    <g mask="url(#mask-2)">
                      <g id="Fill-4" class="movable-arrow movable-arrow0" transform="rotate(120, 270, 270)">
                        <path id="path-8-2" data-name="path-8" d="M267.1,14.9l45.3,60.3-45.2,60.2V113.7c-87,7.1-151.8,83.5-144.6,170.6a158.7,158.7,0,0,0,12.2,49.2l-48.6-5.9-21,49.2A238.5,238.5,0,0,1,41,284.3c-7.2-132.1,94.1-245,226.1-252.1Z" transform="translate(-9.6 -2)" fill="url(#linear-gradient-3)"/>
                      </g>
                      <circle id="Oval-2" data-name="Oval" cx="270" cy="270.3" r="200" opacity="0.25" fill="url(#linear-gradient-4)" style="isolation: isolate"/>
                    </g>
                    <path id="F책_flere_kunder" data-name="F책 flere kunder" d="M80.6,206.4,77.9,215l14.2,4.5,1-3.3-5.4-1.7,1.5-4.6-2.6-.9-1.4,4.7-3.7-1.1,1.7-5.4Zm2.8-7.9a1.3,1.3,0,0,1,.7.6,1.4,1.4,0,0,1,0,.9.9.9,0,0,1-.6.6,1.4,1.4,0,0,1-1.7-.6,1.4,1.4,0,0,1,0-.9,1.2,1.2,0,0,1,1.6-.6Zm.7-1.7a3,3,0,0,0-3.6,1.2,3,3,0,0,0,.4,3.8,2.9,2.9,0,0,0,3.8.2,2.8,2.8,0,0,0,1-3.6A2.8,2.8,0,0,0,84.1,196.8Zm9.8,5.7a1.6,1.6,0,0,1,.9.7,1.3,1.3,0,0,1,0,1.2,1,1,0,0,1-.5.8,1.7,1.7,0,0,1-1,0,1.2,1.2,0,0,1-.7-.7,2.8,2.8,0,0,1,.1-1.3l.4-1Zm-5.3,0c.4-1.2,1.1-1.6,1.9-1.3l.8.3-.5,1.3a5,5,0,0,0-.4,3.6,2.7,2.7,0,0,0,1.9,2,3.1,3.1,0,0,0,2.5-.1,3.4,3.4,0,0,0,1.7-2,2.9,2.9,0,0,0-.3-3.1l1.2.5,1.2-3-6.7-2.5a4,4,0,0,0-3.4,0,4.9,4.9,0,0,0-2.2,2.9,7.2,7.2,0,0,0-.7,3.8l2.7,1.1a5.3,5.3,0,0,1,.3-3.5Zm2.8-13.4,2.1,1,.6-1.3,7.9,3.8,1.4-2.8-7.9-3.9.9-1.9-2.1-1-.9,1.9-.4-.2a1.5,1.5,0,0,1-1-.9,2.2,2.2,0,0,1,.2-1.4l.9-1.2,11.7,5.7,1.4-2.9-13-6.3a12.2,12.2,0,0,0-3.6,4.2,3.8,3.8,0,0,0-.3,3.3,3.9,3.9,0,0,0,2.3,2.4l.4.2ZM103,176.2a3.3,3.3,0,0,1-1.1-1.5,1.9,1.9,0,0,1,.2-1.5c.5-.9,1.3-1.1,2.5-.5h.3Zm5.2-.8a4,4,0,0,1-1.4,1.5,2.8,2.8,0,0,1-1.8.3l3.2-5.7a7.1,7.1,0,0,0-1.4-1,5.2,5.2,0,0,0-4-.8,4.6,4.6,0,0,0-2.9,2.4,5.1,5.1,0,0,0-.5,4,5.8,5.8,0,0,0,5,4.2,5.6,5.6,0,0,0,5.7-3.2,6,6,0,0,0,1.1-3.4l-2.4-1.3a4,4,0,0,1-.6,3Zm-4.4-9.9,9.5,6,1.7-2.7-4.7-3a2.8,2.8,0,0,1-1.4-1.6,1.9,1.9,0,0,1,.3-1.8,2.4,2.4,0,0,1,.8-.9l-2.6-1.6-.5.6a2.5,2.5,0,0,0-.4,1.7,3,3,0,0,0,.8,1.7l-1.8-1.1Zm9.9-6.8a2.6,2.6,0,0,1-.9-1.6,2.1,2.1,0,0,1,.3-1.5c.6-.8,1.5-.9,2.6-.2h.2Zm5.3-.2a4.7,4.7,0,0,1-1.5,1.3,2.8,2.8,0,0,1-1.8.1l3.7-5.4a6.9,6.9,0,0,0-1.3-1.1,5.6,5.6,0,0,0-4-1.2,4.9,4.9,0,0,0-3.1,2.2,4.7,4.7,0,0,0-.8,3.8,5.6,5.6,0,0,0,4.5,4.7,5.5,5.5,0,0,0,6-2.6,5.8,5.8,0,0,0,1.4-3.3l-2.2-1.5A4.6,4.6,0,0,1,119,158.5Zm8.5-16.6-1.6-6.4-2.3,2.8,1.5,5.9-6.9-5.7-2.1,2.4,11.7,9.8,2.1-2.5-4.3-3.5,6.5.8,2.4-2.9Zm9-9.1c1.4,1.3,1.6,2.5.6,3.5s-1.6.8-2.6-.1l-4.9-4.7-2.2,2.4,5.4,5.1a3.6,3.6,0,0,0,2.7,1.2,3.7,3.7,0,0,0,2.6-1.2,3.4,3.4,0,0,0,.9-3.8l1.3,1.2,2.3-2.3-8.1-7.7-2.3,2.4Zm.3-8.7,7.6,8.2,2.4-2.2-4-4.4a2.7,2.7,0,0,1-1-1.9,1.8,1.8,0,0,1,.6-1.5,1.9,1.9,0,0,1,1.3-.5,2.9,2.9,0,0,1,1.4.8l4.5,4.9,2.3-2.2L147,120a4.5,4.5,0,0,0-2.8-1.6,4.3,4.3,0,0,0-3.8,2.9,3.4,3.4,0,0,0,.1,2l-1.3-1.4Zm17.5-5.2a3.5,3.5,0,0,1-1.9-1.3,4.3,4.3,0,0,1-.9-2.2,2.1,2.1,0,0,1,.9-1.7,2.3,2.3,0,0,1,1.8-.5,2.8,2.8,0,0,1,1.9,1.2,3.1,3.1,0,0,1,.9,2.2,1.8,1.8,0,0,1-.8,1.8,2.5,2.5,0,0,1-1.9.5Zm-.5-7.4a3.8,3.8,0,0,0-3.8.7,4.3,4.3,0,0,0-1.7,3.3,5.7,5.7,0,0,0,1.6,4.1,5.9,5.9,0,0,0,3.5,2.3,4,4,0,0,0,3.8-.8,3.6,3.6,0,0,0,1.4-3.6l1.1,1.3,2.5-2-9.8-12.1-2.5,2.1Zm8.8-3.1a2.9,2.9,0,0,1-.3-1.8,2,2,0,0,1,.8-1.3c.8-.6,1.7-.4,2.5.6l.2.2Zm5.1,1.5a3.4,3.4,0,0,1-1.9.7,2.4,2.4,0,0,1-1.8-.5l5.4-3.8-.9-1.5a5.1,5.1,0,0,0-3.3-2.4,5,5,0,0,0-3.7,1,5.2,5.2,0,0,0-2.1,3.3,5.8,5.8,0,0,0,9.3,5.6,6.9,6.9,0,0,0,2.4-2.7l-1.6-2.2a4.2,4.2,0,0,1-1.8,2.5Zm.2-10.8,6,9.4,2.7-1.7-3-4.7a2.9,2.9,0,0,1-.5-2,2.1,2.1,0,0,1,1-1.6l1.1-.4-1.6-2.6-.8.4a2.1,2.1,0,0,0-1,1.4,4,4,0,0,0-.1,1.9l-1.1-1.8Z" transform="rotate(120, 270, 270) translate(-9.6 -2)" fill="#fff"/>
                  </g>

                  <g id="arrow_1">
                    <path id="path-4-2-grey" data-name="path-4" d="M328.4,75.2,296.3,32.4a239,239,0,0,1,92.1,25.4c118,59.8,165.1,204,105.3,321.9l14.9,8.7-74.8,9-29.5-69.3L423.1,339c37.3-79,3.5-173.3-75.4-210.6A156.6,156.6,0,0,0,299,114.3Z" transform="rotate(120, 270, 270) translate(-9.6 -2)" fill="#c2c2c2"/>
                    <g mask="url(#mask)">
                      <g id="arrow_1" class="movable-arrow movable-arrow1" transform="rotate(120, 270, 270)">
                        <path id="path-4-2" data-name="path-4" d="M328.4,75.2,296.3,32.4a239,239,0,0,1,92.1,25.4c118,59.8,165.1,204,105.3,321.9l14.9,8.7-74.8,9-29.5-69.3L423.1,339c37.3-79,3.5-173.3-75.4-210.6A156.6,156.6,0,0,0,299,114.3Z" transform="translate(-9.6 -2)" fill="url(#linear-gradient)"/>
                      </g>
                      <circle id="Oval" cx="270" cy="270.3" r="200" opacity="0.25" fill="url(#linear-gradient-2)" style="isolation: isolate"/>
                    </g>
                    <path id="_.._der_kommer_igen" data-name=" .. der kommer igen" d="M483.3,278a1.9,1.9,0,0,0-1.5-2,2,2,0,0,0-2.2,1.1,1.9,1.9,0,0,0,.7,2.4,1.8,1.8,0,0,0,2.4-.1A2,2,0,0,0,483.3,278Zm.1-5.7a1.9,1.9,0,0,0-1.5-1.9,2,2,0,0,0-2.2,1.1,1.9,1.9,0,0,0,.7,2.4,2.1,2.1,0,0,0,2.5-.2A1.9,1.9,0,0,0,483.4,272.3Zm-3.9-12.8a3,3,0,0,1-2.1.8,3.2,3.2,0,0,1-2.3-.5,2.3,2.3,0,0,1-.3-3.4,2.9,2.9,0,0,1,2.1-.9,3.6,3.6,0,0,1,2.3.5,2.1,2.1,0,0,1,1,1.7,2.2,2.2,0,0,1-.7,1.8Zm-6.3-3.8a3.7,3.7,0,0,0-1.6,3.5,4.3,4.3,0,0,0,1.7,3.3,6.1,6.1,0,0,0,4.3,1.1,6.2,6.2,0,0,0,3.9-1.6,4.1,4.1,0,0,0,1.5-3.6,3.8,3.8,0,0,0-2.1-3.2h1.7l-.2-3.2L466.9,253l.2,3.2Zm2-8.1a3,3,0,0,1-1.8-.6,2.1,2.1,0,0,1-.7-1.3c-.1-1,.4-1.7,1.7-1.9h.3Zm3.7-3.8a3.4,3.4,0,0,1-.2,2,2.7,2.7,0,0,1-1.3,1.3l-.9-6.5h-1.7a5.3,5.3,0,0,0-3.7,1.8,4.5,4.5,0,0,0-.8,3.7,4.7,4.7,0,0,0,2,3.4,5.8,5.8,0,0,0,9.2-5.6,7,7,0,0,0-1.2-3.4l-2.7.4a4.9,4.9,0,0,1,1.3,2.8Zm-9.5-4.1,11-2.1-.6-3.1-5.5,1a3.1,3.1,0,0,1-2.1-.2,2.3,2.3,0,0,1-1-1.5,2.9,2.9,0,0,1,0-1.3l-3,.6a1.9,1.9,0,0,0,.1.8,3,3,0,0,0,.8,1.6,3.6,3.6,0,0,0,1.8.7l-2.1.4Zm.9-20.2-6.2-2.4,1,3.6,5.7,2.1-8.7,2.3.9,3.1,14.6-3.9-.8-3.1-5.3,1.4,4.4-4.9-1-3.6Zm-.1-14.9a6.6,6.6,0,0,0-4.4,0,5.9,5.9,0,0,0-3.5,2.7,5.7,5.7,0,0,0,2.6,7.5,5.9,5.9,0,0,0,4.5.1,5.7,5.7,0,0,0,3.4-2.6,5.2,5.2,0,0,0,.2-4.4,5,5,0,0,0-2.8-3.2Zm-3.3,3.1a6.5,6.5,0,0,1,2.4-.2,1.6,1.6,0,0,1,1.3,1.2,1.5,1.5,0,0,1-.3,1.8,5.2,5.2,0,0,1-4.4,1.5,1.7,1.7,0,0,1-1.4-1.2C464.1,209.5,464.9,208.4,466.9,207.7Zm-6.7-2.5,10.2-4.4-1.2-3-5.4,2.4a4.5,4.5,0,0,1-2.3.3,2.4,2.4,0,0,1-1-1,1.3,1.3,0,0,1,0-1.2,3.1,3.1,0,0,1,1.3-1l6.1-2.6-1.3-2.9-5.4,2.3a2.9,2.9,0,0,1-2.2.3,1.6,1.6,0,0,1-1.1-1,1.1,1.1,0,0,1,.1-1.2,2.7,2.7,0,0,1,1.2-.9l6.1-2.6-1.3-3-6.6,2.8a4.5,4.5,0,0,0-2.4,2.1,3.1,3.1,0,0,0,.1,2.8,3.1,3.1,0,0,0,1.3,1.7,3.1,3.1,0,0,0,1.9.6,2.9,2.9,0,0,0-.7,3.7,3.1,3.1,0,0,0,2.9,2.1l-1.6.7Zm-7.1-16.4,9.8-5.3-1.5-2.8-5.2,2.8a3.3,3.3,0,0,1-2.2.5,1.7,1.7,0,0,1-1.1-.9,1.3,1.3,0,0,1-.1-1.2,3.2,3.2,0,0,1,1.2-1.1l5.8-3.1-1.5-2.8-5.2,2.8a3.3,3.3,0,0,1-2.2.5,1.8,1.8,0,0,1-1.2-.9,1.3,1.3,0,0,1,0-1.2,2.3,2.3,0,0,1,1.2-1l5.8-3.2-1.5-2.8-6.3,3.4a4.7,4.7,0,0,0-2.3,2.3,3.5,3.5,0,0,0,.3,2.8,4.3,4.3,0,0,0,1.5,1.5,2.8,2.8,0,0,0,2,.4,2.9,2.9,0,0,0-.4,3.7,3.1,3.1,0,0,0,3.1,1.9l-1.5.9Zm-6.3-20.4a3.7,3.7,0,0,1-1.8.2,1.7,1.7,0,0,1-1.2-.8c-.6-.9-.4-1.8.7-2.6h.2Zm1.8-5a3.1,3.1,0,0,1,.6,1.9,2.7,2.7,0,0,1-.6,1.7l-3.5-5.5-1.6.8a5.4,5.4,0,0,0-2.5,3.2,4.5,4.5,0,0,0,.8,3.7,4.5,4.5,0,0,0,3.2,2.2,5.6,5.6,0,0,0,6.1-2.4,5.7,5.7,0,0,0-.1-6.5,6.9,6.9,0,0,0-2.5-2.6l-2.3,1.5a5.2,5.2,0,0,1,2.4,2Zm-10.4.3,9.1-6.5-1.9-2.6-4.5,3.2a3.1,3.1,0,0,1-2,.7,2.3,2.3,0,0,1-1.6-1,3.7,3.7,0,0,1-.5-1.1l-2.5,1.8a1.8,1.8,0,0,0,.5.7,2.1,2.1,0,0,0,1.4,1,3.1,3.1,0,0,0,1.9,0l-1.7,1.2Zm-1.2-20-8.6,7,2,2.5,8.6-7Zm-8.7,9.1a1.7,1.7,0,0,0-2.3-.4,1.8,1.8,0,0,0-.9,2.2,1.9,1.9,0,0,0,2,1.3,1.8,1.8,0,0,0,1.6-1.7,1.5,1.5,0,0,0-.4-1.4Zm2-11.4a3.8,3.8,0,0,1-1.2,1.8,3.2,3.2,0,0,1-1.9,1,1.9,1.9,0,0,1-1.6-.6c-1-1.1-.7-2.3.7-3.6a3.4,3.4,0,0,1,1.8-.9,2.1,2.1,0,0,1,1.7.7,1.8,1.8,0,0,1,.5,1.6Zm-7,1.3a3,3,0,0,0,.8,3.2,4,4,0,0,0,3.4,1.5,6,6,0,0,0,3.8-1.7,5.8,5.8,0,0,0,2.1-3.7,4.1,4.1,0,0,0-1.1-3.2,3.4,3.4,0,0,0-3.2-1.3l.6-.5a2.2,2.2,0,0,1,1.8-.8,2.7,2.7,0,0,1,1.9,1.1A5.7,5.7,0,0,1,435,141l2.5-2.2a10.7,10.7,0,0,0-2.2-3.7,5.7,5.7,0,0,0-3.7-2,4.6,4.6,0,0,0-4,1.5l-7.5,6.7,2.1,2.4Zm-3.2-7.8a2.8,2.8,0,0,1-1.7.7,2,2,0,0,1-1.4-.6c-.7-.7-.7-1.6.2-2.6l.2-.2Zm.7-5.2a2.7,2.7,0,0,1,1,1.7,2.2,2.2,0,0,1-.2,1.8l-4.6-4.6-1.4,1.1a5.5,5.5,0,0,0-1.8,3.7,5.2,5.2,0,0,0,1.6,3.5,5,5,0,0,0,3.7,1.4,5.7,5.7,0,0,0,5.4-3.7,5.8,5.8,0,0,0-1.6-6.3,6,6,0,0,0-3-1.9l-1.9,1.9a4.4,4.4,0,0,1,2.8,1.4Zm-9.9,2.6,7.3-8.4-2.5-2.1-3.8,4.4a3.6,3.6,0,0,1-1.8,1.2,1.8,1.8,0,0,1-1.6-.4,1.6,1.6,0,0,1-.6-1.3,2,2,0,0,1,.6-1.4l4.4-5-2.5-2.1-4.7,5.4a4,4,0,0,0-1.2,2.9,3.3,3.3,0,0,0,1.3,2.6,3.7,3.7,0,0,0,1.9.9,4.4,4.4,0,0,0,2-.2l-1.3,1.4Z" transform="rotate(120, 270, 270) translate(-9.6 -2)" fill="#fff"/>
                  </g>

                <g id="arrow_2" data-name="arrow 1">
                  <path id="mask--gray" class="mask-2" d="M267.1,14.9l45.3,60.3-45.2,60.2V113.7c-87,7.1-151.8,83.5-144.6,170.6a158.7,158.7,0,0,0,12.2,49.2l-48.6-5.9-21,49.2A238.5,238.5,0,0,1,41,284.3c-7.2-132.1,94.1-245,226.1-252.1Z" transform="translate(-9.6 -1.5)" fill="#c2c2c2" stroke="white" stroke-width="0px" opacity="1" />
                  <g mask="url(#mask-3)">
                    <g id="Mask-4" class="movable-arrow movable-arrow2" transform="rotate(120, 270, 270)">
                      <path id="path-12-2" data-name="path-12" d="M64.5,410.8l29.6-69.4,74.8,9.1-18.8,10.9a158.1,158.1,0,0,0,220,40,156.4,156.4,0,0,0,36.5-35.2l19.2,45.1,53.1-6.4a240.1,240.1,0,0,1-68,67.1c-110.8,72.2-259.2,40.9-331.4-69.9Z" transform="translate(-9.6 -2)" fill="url(#linear-gradient-5)"/>
                    </g>
                    <circle id="Oval-3" data-name="Oval" cx="270.4" cy="270" r="200" opacity="0.25" fill="url(#linear-gradient-6)" style="isolation: isolate"/>
                  </g>
                  <path id="_.._og_anbefaler_dig_til_andre" data-name=" .. og anbefaler dig til andre" d="M384.7,436.5a1.9,1.9,0,0,0-.8,2.3,2,2,0,0,0,2.1,1.3,2,2,0,0,0,.2-3.9A2,2,0,0,0,384.7,436.5Zm-4.9,2.8a1.9,1.9,0,1,0,1.5-.2A1.9,1.9,0,0,0,379.8,439.3Zm-15.9,9.8a5.7,5.7,0,0,0,.4,4.4,6.9,6.9,0,0,0,3,3.1,5.8,5.8,0,0,0,7.3-3.5,6.2,6.2,0,0,0-.5-4.4,5.1,5.1,0,0,0-7.3-2.8A4.9,4.9,0,0,0,363.9,449.1Zm3.4,2.8a3.7,3.7,0,0,1-.5-2.3,1.5,1.5,0,0,1,1-1.4,1.7,1.7,0,0,1,1.9.1,5.3,5.3,0,0,1,2,4.2,1.8,1.8,0,0,1-1.1,1.5Q368.7,454.9,367.3,451.9Zm-9.2,1.9a3.8,3.8,0,0,1,1.3,1.8,3.1,3.1,0,0,1,.2,2.1,1.8,1.8,0,0,1-1.1,1.3c-1.4.5-2.4-.2-3.1-2a3.5,3.5,0,0,1-.2-2,2,2,0,0,1,1.2-1.3A1.7,1.7,0,0,1,358.1,453.8Zm-1.3,7a3.5,3.5,0,0,0,3.4.4,4,4,0,0,0,2.5-2.7,5.3,5.3,0,0,0-.2-4.1,5.5,5.5,0,0,0-2.7-3.3,4.3,4.3,0,0,0-3.5-.1,3.4,3.4,0,0,0-2.3,2.5l-.3-.7a2.3,2.3,0,0,1,0-2,2.6,2.6,0,0,1,1.7-1.4,6.1,6.1,0,0,1,4-.2l-1.2-3.1a10.1,10.1,0,0,0-4.2.8,5.6,5.6,0,0,0-3.2,2.7,4.7,4.7,0,0,0,0,4.3l3.6,9.4,3-1.2Zm-18.3-.2a1.7,1.7,0,0,1,0-1.2,1.6,1.6,0,0,1,.9-.7h1a1,1,0,0,1,.6.8,1,1,0,0,1-.2.9,1.9,1.9,0,0,1-1.1.7l-1,.3Zm3.2,4.3c-1.2.3-1.9.1-2.2-.8l-.2-.8,1.3-.4a5.5,5.5,0,0,0,3.1-1.8,3,3,0,0,0,.5-2.7,3.2,3.2,0,0,0-1.6-2,3.6,3.6,0,0,0-2.7-.2,2.8,2.8,0,0,0-2.2,2.2l-.4-1.3-3,.9,2,6.8a3.5,3.5,0,0,0,2,2.7,4.8,4.8,0,0,0,3.7,0,8,8,0,0,0,3.4-1.8l-.8-2.7a6.1,6.1,0,0,1-2.9,1.9Zm-7.4,4.6-2.5-10.9-3.1.7,1.3,5.8a3,3,0,0,1-.1,2.1,1.7,1.7,0,0,1-1.3,1,1.3,1.3,0,0,1-1.3-.2,1.8,1.8,0,0,1-.8-1.4l-1.5-6.4-3.1.7,1.6,7a4,4,0,0,0,1.6,2.8,3.9,3.9,0,0,0,2.8.4,4.4,4.4,0,0,0,1.9-1,4,4,0,0,0,1-1.8l.4,1.9Zm-18.2-4.1a3.8,3.8,0,0,1,1,2.1,2.8,2.8,0,0,1-.4,2.2,2.3,2.3,0,0,1-1.6,1.1,2.1,2.1,0,0,1-1.8-.6,2.8,2.8,0,0,1-1-2.1,2.9,2.9,0,0,1,.3-2.2,2.1,2.1,0,0,1,1.6-1.1A2.2,2.2,0,0,1,316.1,465.4Zm5.7,11.3-2.4-15.3-3.2.5.3,1.7a3.6,3.6,0,0,0-3.6-1.3,4.2,4.2,0,0,0-3.2,2.2,6.9,6.9,0,0,0-.7,4.2,6.1,6.1,0,0,0,2.1,3.9,4.2,4.2,0,0,0,3.6.9,3.5,3.5,0,0,0,3-2.3l1,6Zm-17.6-6.5a3.6,3.6,0,0,1-.7,1.7,1.7,1.7,0,0,1-1.3.7c-1,.1-1.6-.5-1.9-1.8v-.2Zm-3.7-3.9a3.4,3.4,0,0,1,2,.3,2.7,2.7,0,0,1,1.3,1.3l-6.5.7a4.8,4.8,0,0,0,0,1.7,5.5,5.5,0,0,0,1.6,3.8,4.9,4.9,0,0,0,3.7.9,4.8,4.8,0,0,0,3.5-1.8,5.8,5.8,0,0,0-5.3-9.4,6,6,0,0,0-3.4,1.1l.3,2.6a5,5,0,0,1,2.8-1.2Zm-10.4,14.2a4,4,0,0,0,3.1-1.3,4.1,4.1,0,0,0,1-3.2v-.4h1.5v-2.3H294l-.4-8.8-3.2.2.4,8.8h-2v2.3H291v.4a2.3,2.3,0,0,1-.4,1.4,1.5,1.5,0,0,1-1.1.4,2.5,2.5,0,0,1-1.2-.2v2.6a5,5,0,0,0,1.7.2Zm-8.8-12a2,2,0,0,1,.3-1.1,1.6,1.6,0,0,1,1.1-.5,1.4,1.4,0,0,1,.9.3,1,1,0,0,1,.4.9,1.5,1.5,0,0,1-.4.9,1.9,1.9,0,0,1-1.3.3h-1Zm1.8,5c-1.2,0-1.8-.5-1.8-1.4v-.8h1.4a5.6,5.6,0,0,0,3.5-.9,2.7,2.7,0,0,0,1.1-2.5,2.9,2.9,0,0,0-.9-2.3,3.4,3.4,0,0,0-2.5-.9,2.8,2.8,0,0,0-2.8,1.4v-1.4H278v7.1a4.2,4.2,0,0,0,1.1,3.2,5.8,5.8,0,0,0,3.6,1,8.3,8.3,0,0,0,3.8-.7v-2.9a6.7,6.7,0,0,1-3.4,1Zm-11-9-.7,15.5,3.3.2.6-15.6Zm-5.9,6.2a2.6,2.6,0,0,1-.9,1.6,2.4,2.4,0,0,1-1.4.5c-1-.1-1.6-.8-1.5-2.1v-.3Zm-2.8-4.5a4.4,4.4,0,0,1,1.9.7,2.5,2.5,0,0,1,1,1.5l-6.5-.5a8.5,8.5,0,0,0-.4,1.7,5.8,5.8,0,0,0,1,4,4.6,4.6,0,0,0,3.4,1.6,4.7,4.7,0,0,0,3.8-1.2,5.8,5.8,0,0,0,1.8-6.3,5.9,5.9,0,0,0-5.2-3.9,7.3,7.3,0,0,0-3.6.4l-.2,2.7a5.1,5.1,0,0,1,3-.7Zm-7.2,8.1,1.5-11.1-3.2-.4-.7,5.5a3.4,3.4,0,0,1-.9,1.9,2,2,0,0,1-1.8.5,1.9,1.9,0,0,1-1.2-.4l-.4,3,.8.2a2.9,2.9,0,0,0,1.8-.3,3.3,3.3,0,0,0,1.2-1.4l-.3,2Zm-16-10.6a3.6,3.6,0,0,1,.2,2.3,3.2,3.2,0,0,1-1.2,2,2,2,0,0,1-1.8.4,2.3,2.3,0,0,1-1.6-1.1,3.6,3.6,0,0,1-.2-2.3,2.8,2.8,0,0,1,1.2-2,2,2,0,0,1,1.8-.5,2.2,2.2,0,0,1,1.6,1.2Zm-5.4,5a3.6,3.6,0,0,0,2.8,2.5,4.4,4.4,0,0,0,3.7-.7,5.7,5.7,0,0,0,2.2-3.8,6.1,6.1,0,0,0-.3-4.2,4,4,0,0,0-3.1-2.4,3.3,3.3,0,0,0-3.6,1.1l.3-1.7-3.1-.7L230.3,474l3.1.7Zm-6.9-11.5L225,467.9l3.1.9L231,458Zm-1.7,12.5a1.8,1.8,0,0,0-2.2.9,1.9,1.9,0,0,0,2.9,2.3,2,2,0,0,0,.4-2.4,1.8,1.8,0,0,0-1.1-.8Zm-5.3-10.9a3.3,3.3,0,0,1-.2,2.2,3.7,3.7,0,0,1-1.1,1.8,1.5,1.5,0,0,1-1.7.2c-1.4-.4-1.8-1.6-1.2-3.5a3.1,3.1,0,0,1,1.2-1.6,1.9,1.9,0,0,1,1.8-.2,1.9,1.9,0,0,1,1.2,1.1Zm-5.4,4.6a3,3,0,0,0,2.3,2.4,4.1,4.1,0,0,0,3.7-.4,6.6,6.6,0,0,0,2.4-3.3,5.4,5.4,0,0,0,0-4.3,4.5,4.5,0,0,0-2.6-2.3,3.5,3.5,0,0,0-3.4.5l.2-.7a2.7,2.7,0,0,1,1.3-1.7,3.3,3.3,0,0,1,2.2.1,5.8,5.8,0,0,1,3.2,2.4l1-3.1a8.8,8.8,0,0,0-3.6-2.1,6.4,6.4,0,0,0-4.3,0,5.1,5.1,0,0,0-2.8,3.3l-3.1,9.6,3,1ZM198.7,456l-.9,2.2,2.4,1-1,2.4,3,1.3,1-2.5,1.5.6.9-2.1-1.5-.7,2-4.7c1-2.3.3-4-2.1-4.9a5.1,5.1,0,0,0-2.1-.6l-1.1,2.5a3.3,3.3,0,0,1,1.7.2,1.3,1.3,0,0,1,.7.6,1.2,1.2,0,0,1-.1,1l-2,4.7Zm-1.5-10.4-4.7,10.1,2.9,1.4,4.7-10.2Zm-3.8,12a2,2,0,0,0-2.4.6,2,2,0,0,0,.2,2.4,1.7,1.7,0,0,0,2.3.3,1.8,1.8,0,0,0,.8-2.2,1.7,1.7,0,0,0-.9-1.1Zm-1.7-14.7-7,13.9,2.8,1.4,7.1-13.9Zm-14-3.4a1.4,1.4,0,0,1,.9-.8,1.3,1.3,0,0,1,1.2.2.9.9,0,0,1,.6.6,1.1,1.1,0,0,1-.1,1,1,1,0,0,1-.8.5,1.5,1.5,0,0,1-1.3-.3l-.9-.5Zm-.9,5.2q-1.7-.9-.9-2.1l.4-.7,1.2.7a5.3,5.3,0,0,0,3.5,1,3.3,3.3,0,0,0,2.3-1.5,3.2,3.2,0,0,0,.3-2.5,3,3,0,0,0-1.7-2.1,2.9,2.9,0,0,0-3.1-.2l.7-1.1-2.7-1.6-3.6,6.1a4.1,4.1,0,0,0-.6,3.4,4.6,4.6,0,0,0,2.5,2.6,6.9,6.9,0,0,0,3.6,1.3l1.5-2.5a5.7,5.7,0,0,1-3.4-.8Zm-8.4-2.2,6.2-9.3-2.6-1.8-3.3,4.9a2.9,2.9,0,0,1-1.7,1.4,1.8,1.8,0,0,1-1.6-.2,1.5,1.5,0,0,1-.7-1.2,2,2,0,0,1,.4-1.5l3.7-5.5-2.6-1.8-4.1,6a4.1,4.1,0,0,0-.9,3,3.5,3.5,0,0,0,1.7,2.4,4.8,4.8,0,0,0,2,.7,3.2,3.2,0,0,0,1.9-.5l-1.1,1.6Zm-9.1-15.9a2.9,2.9,0,0,1-.7,2.2,3.9,3.9,0,0,1-2,1.3,2,2,0,0,1-1.8-.4,2.2,2.2,0,0,1-.9-1.7,2.8,2.8,0,0,1,.7-2.1,3.5,3.5,0,0,1,2-1.4,2.2,2.2,0,0,1,1.9.4A2.1,2.1,0,0,1,159.3,426.6Zm-7,2.2a3.6,3.6,0,0,0,1.5,3.5,4.1,4.1,0,0,0,3.7.9,5.7,5.7,0,0,0,3.6-2.4,7,7,0,0,0,1.5-4,4.4,4.4,0,0,0-1.8-3.5,3.5,3.5,0,0,0-3.8-.5l1.1-1.4-2.5-2L146,431.7l2.6,2Zm-6-2.7,7.3-8.4-2.4-2.1-3.7,4.2a2.7,2.7,0,0,1-1.8,1.1,2.1,2.1,0,0,1-1.7-.5,2.5,2.5,0,0,1-.8-1l-2,2.3.6.6a2.6,2.6,0,0,0,1.6.7,3.5,3.5,0,0,0,1.8-.5l-1.3,1.5ZM141,415.3a2.8,2.8,0,0,1-1.7.7,2,2,0,0,1-1.4-.6c-.7-.7-.7-1.5.1-2.6h.2Zm.6-5.3a4.2,4.2,0,0,1,1.1,1.8,2.8,2.8,0,0,1-.2,1.8l-4.7-4.5-1.4,1.1a5.2,5.2,0,0,0-1.7,3.7,4.4,4.4,0,0,0,1.6,3.4,5.1,5.1,0,0,0,3.7,1.5,6.1,6.1,0,0,0,5.4-3.8,5.9,5.9,0,0,0-1.7-6.4,6.2,6.2,0,0,0-3-1.8l-1.9,1.9a4.6,4.6,0,0,1,2.8,1.3Z" transform="rotate(120, 270, 270) translate(-9.6 -2)" fill="#fff"/>
                </g>

                <g mask="url(#mask-3)">
                  <circle id="Oval-3" data-name="Oval" cx="270.4" cy="270" r="200" opacity="0.25" fill="url(#linear-gradient-6)" style="isolation: isolate"/>
                </g>
              </g>

              <g id="middle">
                <circle id="depth" cx="270.4" cy="270" r="120" fill-opacity="0.5" fill="url(#linear-gradient-7)"/>
                <g id="Group" class="middle-group">
                  <g id="base-2" data-name="base">
                    <g filter="url(#filter-17)">
                      <circle id="path-16" cx="270.4" cy="270" r="90"/>
                    </g>
                    <circle id="middle-circle" data-name="path-16" cx="270.4" cy="270" r="90" fill="#3283cf"/>
                  </g>
                  <g id="M책ling-og-optimering" style="isolation: isolate">
                    <text transform="translate(221.1 258)" font-size="22" fill="#fff" font-family="Arial-BoldMT, Arial" font-weight="400" style="isolation: isolate">M책ling og</text>
                    <text transform="translate(323.7 258)" font-size="22" fill="#fff" font-family="Arial-BoldMT, Arial" font-weight="400"> </text>
                    <text transform="translate(215.4 293)" font-size="22" fill="#fff" font-family="Arial-BoldMT, Arial" font-weight="400" style="isolation: isolate">optimering</text>
                  </g>
                </g>
              </g>
            </g>
          </g>
        </g>
      </g>
    </g>
  </g>
</svg>
