<?xml version="1.0" encoding="UTF-8"?>
<svg width="560px" height="560px" viewBox="0 0 560 560" version="1.1" xmlns="http://www.w3.org/2000/svg" xmlns:xlink="http://www.w3.org/1999/xlink">
    <!-- Generator: Sketch 52.5 (67469) - http://www.bohemiancoding.com/sketch -->
    <title>wheel</title>
    <desc>Created with Sketch.</desc>
    <defs>
        <circle id="path-1" cx="270" cy="270" r="270"></circle>
        <filter x="-3.5%" y="-2.0%" width="107.0%" height="107.0%" filterUnits="objectBoundingBox" id="filter-2">
            <feOffset dx="0" dy="8" in="SourceAlpha" result="shadowOffsetOuter1"></feOffset>
            <feGaussianBlur stdDeviation="5" in="shadowOffsetOuter1" result="shadowBlurOuter1"></feGaussianBlur>
            <feColorMatrix values="0 0 0 0 0   0 0 0 0 0   0 0 0 0 0  0 0 0 0.05 0" type="matrix" in="shadowBlurOuter1"></feColorMatrix>
        </filter>
        <linearGradient x1="50%" y1="-2.48949813e-15%" x2="50%" y2="100%" id="linearGradient-3">
            <stop stop-color="#C9DCEF" offset="0%"></stop>
            <stop stop-color="#FDFEFF" offset="100%"></stop>
        </linearGradient>
        <linearGradient x1="50.0484671%" y1="100%" x2="50%" y2="0%" id="linearGradient-4">
            <stop stop-color="#3283CF" offset="0%"></stop>
            <stop stop-color="#4A6EB3" offset="32.816486%"></stop>
            <stop stop-color="#45208E" offset="100%"></stop>
        </linearGradient>
        <linearGradient x1="10.9730636%" y1="8.81111948%" x2="81.2812941%" y2="31.9722559%" id="linearGradient-5">
            <stop stop-color="#472293" offset="0%"></stop>
            <stop stop-color="#486FB5" offset="100%"></stop>
        </linearGradient>
        <path d="M361.651544,70.0569939 L414.741477,63.6315394 C396.796242,90.347903 373.649933,113.183228 346.687785,130.752578 C235.867383,202.962448 87.4700671,171.688682 15.2300671,60.8938771 L0.266308725,69.5255654 L29.8233557,0.230500433 L104.62604,9.29699394 L85.8448322,20.134916 C135.550604,91.9421887 234.097181,109.865825 305.918389,60.1692017 C319.899597,50.4907602 332.237852,38.6221887 342.433826,25.0143965 L361.651544,70.0569939 Z" id="path-6"></path>
        <linearGradient x1="6.98939732%" y1="68.936942%" x2="50%" y2="90.9291295%" id="linearGradient-8">
            <stop stop-color="#FFFFFF" offset="0%"></stop>
            <stop stop-color="#FFFFFF" stop-opacity="0" offset="100%"></stop>
        </linearGradient>
        <path d="M213.08247,356.418431 L138.281396,365.468821 L108.722738,296.173756 L127.503946,307.011678 C164.858577,228.054275 131.112,133.782068 52.1375034,96.4532364 C36.7710604,89.1742753 20.3254228,84.4397299 3.44649664,82.410639 L32.8424698,43.2459636 L0.738845638,0.490119481 C32.8569664,2.66414545 64.2019329,11.2958338 92.9068993,25.8537558 C210.875758,85.7119377 257.973745,229.825704 198.118711,347.770639 L213.08247,356.418431 Z" id="path-9"></path>
        <filter x="-15.7%" y="-6.8%" width="131.3%" height="119.2%" filterUnits="objectBoundingBox" id="filter-11">
            <feOffset dx="0" dy="10" in="SourceAlpha" result="shadowOffsetOuter1"></feOffset>
            <feGaussianBlur stdDeviation="10" in="shadowOffsetOuter1" result="shadowBlurOuter1"></feGaussianBlur>
            <feColorMatrix values="0 0 0 0 0   0 0 0 0 0   0 0 0 0 0  0 0 0 0.1 0" type="matrix" in="shadowBlurOuter1"></feColorMatrix>
        </filter>
        <linearGradient x1="88.9318504%" y1="81.2900547%" x2="90.8117332%" y2="16.1836093%" id="linearGradient-12">
            <stop stop-color="#FFFFFF" offset="0%"></stop>
            <stop stop-color="#FFFFFF" stop-opacity="0" offset="100%"></stop>
        </linearGradient>
        <linearGradient x1="97.6674338%" y1="12.3932361%" x2="22.906948%" y2="80.9090678%" id="linearGradient-13">
            <stop stop-color="#472293" offset="0%"></stop>
            <stop stop-color="#486FB5" offset="100%"></stop>
        </linearGradient>
        <path d="M226.584966,0.000644155844 L271.830604,60.2453195 L226.584966,120.489995 L226.584966,98.7980468 C139.524564,105.932073 74.7406711,182.296748 81.8762416,269.338306 C83.2614765,286.279605 87.3849664,302.898826 94.0695302,318.535709 L45.4413423,312.641683 L24.4534228,361.839086 C10.2950336,332.932592 2.08026846,301.481683 0.356778523,269.338306 C-6.79489933,137.270255 94.5044295,24.4302545 226.584966,17.2801247 L226.584966,0.000644155844 Z" id="path-14"></path>
        <linearGradient x1="50%" y1="0%" x2="7.04148065%" y2="29.4335937%" id="linearGradient-16">
            <stop stop-color="#FFFFFF" offset="0%"></stop>
            <stop stop-color="#FFFFFF" stop-opacity="0" offset="100%"></stop>
        </linearGradient>
    </defs>
    <g id="Page-2" stroke="none" stroke-width="1" fill="none" fill-rule="evenodd">
        <g id="Homepage" transform="translate(-725.000000, -1718.000000)">
            <g id="content" transform="translate(0.000000, 710.000000)">
                <g id="wheel" transform="translate(165.000000, 340.000000)">
                    <g id="section#2" transform="translate(0.000000, 660.000000)">
                        <g id="wheel" transform="translate(570.000000, 10.000000)">
                            <g id="base">
                                <use fill="black" fill-opacity="1" filter="url(#filter-2)" xlink:href="#path-1"></use>
                                <use fill="#FFFFFF" fill-rule="evenodd" xlink:href="#path-1"></use>
                            </g>
                            <g id="middle" transform="translate(150.000000, 150.000000)">
                                <circle id="depth" fill-opacity="0.5" fill="url(#linearGradient-3)" cx="120" cy="120" r="120"></circle>
                                <g id="Group-2" transform="translate(30.000000, 30.000000)">
                                    <circle id="base" fill="url(#linearGradient-4)" cx="90" cy="90" r="90"></circle>
                                    <text id="Måling-og-optimering" font-family="Hind-Bold, Hind" font-size="22" font-weight="bold" fill="#FFFFFF">
                                        <tspan x="40.692" y="78">Måling og</tspan>
                                        <tspan x="35.027" y="113">optimering</tspan>
                                    </text>
                                </g>
                            </g>
                            <g id="arrows" transform="translate(31.000000, 14.000000)">
                                <g id="arrow#3" transform="translate(23.000000, 326.000000)">
                                    <g id="Group-3" transform="translate(0.624161, 0.277281)">
                                        <mask id="mask-7" fill="white">
                                            <use xlink:href="#path-6"></use>
                                        </mask>
                                        <use id="Fill-1" fill="url(#linearGradient-5)" xlink:href="#path-6"></use>
                                        <circle id="Oval" fill="url(#linearGradient-8)" opacity="0.25" style="mix-blend-mode: overlay;" mask="url(#mask-7)" cx="215" cy="-70" r="200"></circle>
                                    </g>
                                    <g id="-..-der-kommer-igen" transform="translate(196.000000, 117.500000) rotate(6.000000) translate(-196.000000, -117.500000) translate(107.000000, 102.000000)" fill="#FFFFFF">
                                        <path d="M1.117,10.269 C1.95740526,10.672449 2.9657595,10.4263886 3.5258682,9.6811837 C4.0859769,8.93597881 4.04200037,7.89896866 3.42081219,7.20385908 C2.79962401,6.50874951 1.77405809,6.34894166 0.970826833,6.82209241 C0.16759558,7.29524315 -0.189817047,8.26970722 0.117,9.15 C0.28119193,9.64527006 0.643227653,10.050388 1.117,10.269 Z M6.279,12.68 C7.12900592,13.0589989 8.12836086,12.7852044 8.66650257,12.0258931 C9.20464427,11.2665817 9.13188793,10.2329569 8.49268448,9.55651833 C7.85348104,8.88007974 6.82562576,8.74897962 6.03709338,9.24331442 C5.24856099,9.73764923 4.91868281,10.7199191 5.249,11.59 C5.42649335,12.0803418 5.79948187,12.4750578 6.279,12.68 Z M19.579,14.317 C19.3252227,13.57429 19.3518989,12.7644005 19.654,12.04 C19.8835908,11.2560203 20.3885561,10.5813127 21.076,10.14 C21.6407473,9.79227487 22.3340632,9.72368085 22.956,9.954 C23.5832396,10.1775662 24.0859874,10.6570488 24.339,11.273 C24.6257419,12.0080496 24.6113711,12.8264704 24.299,13.551 C24.0600652,14.3347339 23.5590986,15.0125746 22.88,15.471 C22.3034055,15.8333814 21.5932251,15.9136422 20.9502979,15.6890847 C20.3073707,15.4645272 19.8015935,14.9595645 19.576,14.317 L19.579,14.317 Z M25.571,10.038 C25.3347096,8.69224189 24.3720662,7.58828246 23.071,7.171 C21.841148,6.69133636 20.4615972,6.78406387 19.307,7.424 C18.0043187,8.19071095 17.0398002,9.42172234 16.607,10.87 C16.0767948,12.2296564 16.0256517,13.7293826 16.462,15.122 C16.8528559,16.4344447 17.8613698,17.472467 19.162,17.901 C20.4381952,18.4242195 21.9002798,18.1840199 22.942,17.28 L22.351,18.914 L25.372,20.006 L30.661,5.379 L27.64,4.287 L25.571,10.038 Z M32.223,15.184 C32.4729388,14.606431 32.902552,14.1249136 33.448,13.811 C33.8963994,13.5659722 34.4238825,13.5094819 34.914,13.654 C35.914,13.9446667 36.2806667,14.731 36.014,16.013 L35.94,16.267 L32.223,15.184 Z M34.146,20.144 C33.4805436,19.970621 32.8778974,19.6120846 32.408,19.11 C31.9844904,18.6444926 31.7368958,18.0456673 31.708,17.417 L38.008,19.251 C38.2587988,18.7250431 38.4775321,18.1843879 38.663,17.632 C39.1644985,16.296033 39.109021,14.8147135 38.509,13.52 C37.8503071,12.3849032 36.7527052,11.5716504 35.475,11.272 C34.1605628,10.8576045 32.7328223,11.0105638 31.536,11.694 C29.4263287,12.8246699 28.2355558,15.1420351 28.5446049,17.5155591 C28.853654,19.8890831 30.5981368,21.8242578 32.927,22.377 C34.0681133,22.7963533 35.3041375,22.8864476 36.494,22.637 L37.245,20.06 C36.2515945,20.4324979 35.1621477,20.4620661 34.15,20.144 L34.146,20.144 Z M41.77,13.121 L39.17,23.967 L42.295,24.711 L43.583,19.296 C43.7153652,18.5813503 44.1009371,17.9383754 44.669,17.485 C45.1821499,17.0953298 45.8468614,16.9653418 46.469,17.133 C46.8754294,17.2223737 47.257794,17.3983774 47.59,17.649 L48.29,14.695 C48.0390856,14.567533 47.7724521,14.4737238 47.497,14.416 C46.9104494,14.2671735 46.290072,14.3320472 45.747,14.599 C45.1794425,14.8796157 44.7078842,15.3222889 44.392,15.871 L44.871,13.859 L41.77,13.121 Z M59.883,22.166 L64.534,17.483 L60.883,16.911 L56.633,21.301 L58.027,12.39 L54.854,11.89 L52.508,26.89 L55.681,27.39 L56.528,21.978 L59.202,27.941 L62.876,28.516 L59.883,22.166 Z M73.471,28.066 C74.5605631,27.003363 75.2118082,25.5706239 75.296,24.051 C75.4937658,22.5674403 75.122554,21.0640147 74.257,19.843 C72.2307877,17.4784187 68.6860256,17.1673967 66.279,19.143 C65.1534931,20.2119181 64.4785388,21.6702056 64.392,23.22 C64.1944858,24.6871418 64.5686323,26.1740611 65.437,27.373 C66.3849038,28.557629 67.8036247,29.2682682 69.32,29.318 C70.8210091,29.5419048 72.343324,29.0809532 73.468,28.062 L73.471,28.066 Z M71.957,23.847 C71.9154332,24.6521174 71.6630018,25.4321719 71.225,26.109 C70.8626898,26.651996 70.2214587,26.9395784 69.575,26.849 C68.9064157,26.8143684 68.3155348,26.4030005 68.051,25.788 C67.4777472,24.2518386 67.6348982,22.538268 68.478,21.132 C68.8435794,20.5855168 69.4884395,20.2949029 70.14,20.383 C71.556,20.5163333 72.1616667,21.671 71.957,23.847 Z M77.057,18.724 L76.876,29.876 L80.087,29.928 L80.187,24.033 C80.1182913,23.2622317 80.3385564,22.4934424 80.805,21.876 C81.1493749,21.5006794 81.6366452,21.2888386 82.146,21.293 C82.5771152,21.280282 82.9830065,21.4957693 83.214,21.86 C83.4780367,22.313752 83.599953,22.8362504 83.564,23.36 L83.457,29.981 L86.662,30.031 L86.762,24.136 C86.6932913,23.3652317 86.9135564,22.5964424 87.38,21.979 C87.7241967,21.6033097 88.2114911,21.391095 88.721,21.395 C89.1524772,21.3829471 89.5585021,21.5986834 89.79,21.963 C90.053804,22.416815 90.1753788,22.9393424 90.139,23.463 L90.032,30.084 L93.243,30.136 L93.359,22.987 C93.4564526,21.8813992 93.1324776,20.7798127 92.452,19.903 C91.7893652,19.1795531 90.8434976,18.7820621 89.863,18.815 C89.1341368,18.7860834 88.4125678,18.9695155 87.786,19.343 C87.2016422,19.696877 86.7516667,20.2351589 86.507,20.873 C86.1073198,19.5202903 84.8257943,18.6233469 83.418,18.711 C82.0897055,18.5998637 80.8290884,19.3143192 80.242,20.511 L80.27,18.773 L77.057,18.724 Z M94.901,18.942 L95.756,30.063 L98.956,29.817 L98.504,23.938 C98.3646053,23.1769692 98.5124779,22.3912846 98.919,21.733 C99.227415,21.3276441 99.6925821,21.0712756 100.2,21.027 C100.628399,20.9749142 101.052633,21.1518999 101.317,21.493 C101.622209,21.9209437 101.792186,22.4305246 101.805,22.956 L102.312,29.556 L105.512,29.309 L105.06,23.431 C104.919766,22.6696458 105.067687,21.8833478 105.475,21.225 C105.784473,20.8218028 106.249522,20.5676779 106.756,20.525 C107.184399,20.4729142 107.608633,20.6498999 107.873,20.991 C108.177854,21.4190588 108.347479,21.9286303 108.36,22.454 L108.868,29.054 L112.068,28.808 L111.52,21.679 C111.514106,20.5692095 111.089049,19.5026384 110.33,18.693 C109.602895,18.0343646 108.624247,17.7264137 107.651,17.85 C106.922649,17.8886604 106.221219,18.1381039 105.632,18.568 C105.082872,18.9749464 104.684649,19.5529337 104.5,20.211 C103.976832,18.9010893 102.617549,18.1268458 101.224,18.345 C99.8901132,18.3541867 98.698718,19.1814121 98.224,20.428 L98.09,18.695 L94.901,18.942 Z M116.129,21.461 C116.11138,20.8316159 116.297249,20.2133362 116.659,19.698 C116.961813,19.2865205 117.415848,19.0123723 117.921,18.936 C118.949667,18.7766667 119.614667,19.3343333 119.916,20.609 L119.956,20.87 L116.129,21.461 Z M119.97,25.142 C119.29392,25.2670633 118.59623,25.1977104 117.958,24.942 C117.377866,24.6990507 116.900748,24.2611922 116.609,23.704 L123.088,22.704 C123.093131,22.1213577 123.062741,21.5389443 122.997,20.96 C122.886104,19.5373083 122.209244,18.2185304 121.118,17.299 C120.041271,16.548524 118.70254,16.2757124 117.418,16.545 C116.051735,16.7254552 114.822879,17.4682066 114.028,18.594 C112.593175,20.5103113 112.493481,23.1144216 113.777595,25.1348232 C115.061709,27.1552248 117.461809,28.1705315 119.806,27.685 C121.017667,27.5825799 122.176104,27.1414521 123.149,26.412 L122.739,23.76 C121.996079,24.5172665 121.021525,25.0047193 119.97,25.145 L119.97,25.142 Z M123.907,15.554 L126.135,26.484 L129.281,25.836 L128.159,20.384 C127.976955,19.6804507 128.05471,18.9348501 128.378,18.284 C128.678145,17.7131101 129.226476,17.314055 129.862,17.204 C130.267963,17.1122491 130.689022,17.1098606 131.096,17.197 L130.484,14.223 C130.202594,14.2129546 129.921106,14.2405316 129.647,14.305 C129.05254,14.4186643 128.517763,14.7397434 128.138,15.211 C127.742646,15.7055058 127.502865,16.3061755 127.449,16.937 L127.032,14.911 L123.907,15.554 Z M142.665,22.568 L139.728,11.808 L136.628,12.654 L139.566,23.414 L142.665,22.568 Z M137.819,10.915 C138.685079,10.6825959 139.266027,9.8703186 139.206073,8.97560666 C139.146119,8.08089471 138.46199,7.35338962 137.572647,7.23861546 C136.683304,7.1238413 135.836891,7.65382222 135.55175,8.50399795 C135.266609,9.35417367 135.622301,10.2873291 136.401,10.732 C136.828167,10.9842435 137.3405,11.0490087 137.817,10.911 L137.819,10.915 Z M147.456,17.328 C146.887507,16.8489387 146.483555,16.2036647 146.301,15.483 C146.035197,14.8013145 145.994548,14.0524518 146.185,13.346 C146.36407,12.7731846 146.819738,12.3291719 147.397,12.165 C148.778333,11.717 149.778333,12.4413333 150.397,14.338 C150.623381,14.9733087 150.632875,15.6657228 150.424,16.307 C150.225575,16.9123121 149.737732,17.3783894 149.124,17.549 C148.565247,17.7624868 147.936329,17.6777523 147.454,17.324 L147.456,17.328 Z M149.128,10.446 C148.238205,9.64404826 146.972448,9.41194122 145.856,9.846 C144.601171,10.211619 143.590052,11.1439071 143.124,12.365 C142.625928,13.6966889 142.62238,15.162916 143.114,16.497 C143.464356,17.931477 144.369598,19.168317 145.631,19.936 C146.684145,20.5202579 147.93458,20.6342308 149.076,20.25 C150.26545,19.9603323 151.207339,19.0535824 151.542,17.876 L151.774,18.587 C152.051503,19.2426565 152.040616,19.9847658 151.744,20.632 C151.315129,21.2586828 150.666109,21.7010016 149.926,21.871 C148.639842,22.3346469 147.232158,22.3346469 145.946,21.871 L146.96,24.988 C148.368434,25.1428349 149.793665,24.9801856 151.131,24.512 C152.536681,24.1091562 153.748371,23.209805 154.541,21.981 C155.293182,20.6547392 155.396358,19.0569875 154.821,17.645 L151.707,8.062 L148.673,9.048 L149.128,10.446 Z M157.5,10.705 C157.343294,10.0953903 157.387483,9.45148653 157.626,8.869 C157.830919,8.40106844 158.212732,8.03327655 158.688,7.846 C159.656667,7.464 160.428667,7.861 161.004,9.037 L161.104,9.283 L157.5,10.705 Z M162.059,13.446 C161.426983,13.7170555 160.730986,13.803058 160.052,13.694 C159.432641,13.5852833 158.870653,13.2637935 158.463,12.785 L164.563,10.376 C164.439583,9.80648619 164.281285,9.24509484 164.089,8.695 C163.665889,7.33222643 162.714291,6.19585605 161.447,5.54 C160.230811,5.04684199 158.865049,5.07723245 157.672,5.624 C156.379057,6.10134857 155.344382,7.09723209 154.818,8.371 C153.84289,10.5573438 154.321753,13.118911 156.020844,14.8053357 C157.719935,16.4917604 160.285014,16.9514427 162.464,15.96 C163.62261,15.5910224 164.654631,14.9047404 165.443,13.979 L164.456,11.479 C163.899379,12.3821199 163.056673,13.0731106 162.062,13.442 L162.059,13.446 Z M163.69,3.316 L168.418,13.416 L171.327,12.054 L168.827,6.714 C168.463137,6.06738753 168.33785,5.31354703 168.473,4.584 C168.604622,4.03035664 168.985923,3.56924812 169.505,3.336 C169.935055,3.10393251 170.445719,3.07391499 170.9,3.254 C171.384605,3.49976554 171.761118,3.91617336 171.957,4.423 L174.773,10.441 L177.682,9.079 L174.614,2.524 C174.223762,1.50447874 173.452937,0.67629028 172.464,0.214 C171.522676,-0.126208685 170.480973,-0.0490993681 169.6,0.426 C168.930187,0.716993334 168.356408,1.19161739 167.945,1.795 C167.577864,2.34899723 167.387796,3.00150531 167.4,3.666 L166.6,1.952 L163.69,3.316 Z" id="_.._der_kommer_igen"></path>
                                    </g>
                                </g>
                                <g id="arrow#2" transform="translate(255.000000, 17.000000)">
                                    <g>
                                        <mask id="mask-10" fill="white">
                                            <use xlink:href="#path-9"></use>
                                        </mask>
                                        <g id="Fill-4">
                                            <use fill="black" fill-opacity="1" filter="url(#filter-11)" xlink:href="#path-9"></use>
                                            <use fill="#3283CF" fill-rule="evenodd" xlink:href="#path-9"></use>
                                        </g>
                                        <circle id="Oval" fill="url(#linearGradient-12)" opacity="0.25" style="mix-blend-mode: overlay;" mask="url(#mask-10)" cx="-16.3758389" cy="239.277281" r="200"></circle>
                                    </g>
                                    <g id="Få-flere-kunder" transform="translate(158.000000, 163.000000) rotate(15.000000) translate(-158.000000, -163.000000) translate(108.000000, 100.000000)" fill="#FFFFFF">
                                        <path d="M16.586,5.857 L8.961,0.997 L0.991,13.497 L3.867,15.33 L6.867,10.618 L11.004,13.255 L12.459,10.973 L8.325,8.34 L10.382,5.112 L15.131,8.139 L16.586,5.857 Z M23.517,10.548 C23.3341112,10.8126154 23.0561125,10.9963955 22.741,11.061 C22.4301159,11.1222687 22.1077419,11.0519685 21.8505923,10.8668283 C21.5934427,10.6816882 21.424512,10.3982635 21.384,10.084 C21.3157268,9.42437012 21.7518987,8.81802668 22.399,8.673 C22.7098841,8.61173128 23.0322581,8.68203155 23.2894077,8.86717168 C23.5465573,9.05231181 23.715488,9.33573647 23.756,9.65 C23.7949004,9.96893875 23.7092931,10.2905927 23.517,10.548 Z M24.961,11.667 C25.8046487,10.5057174 25.7095605,8.9099969 24.7339713,7.85712175 C23.7583821,6.8042466 22.1745231,6.58801423 20.9524132,7.34085403 C19.7303032,8.09369383 19.2109635,9.6055311 19.7124586,10.9504561 C20.2139536,12.2953811 21.5963446,13.0981018 23.013,12.867 C23.8002192,12.7532645 24.5053096,12.3189172 24.961,11.667 Z M16.917,19.649 C16.6938188,19.9994833 16.3467598,20.2529934 15.945,20.359 C15.5554187,20.4336454 15.1527667,20.3322502 14.845,20.082 C14.5364487,19.9465634 14.3090707,19.6745201 14.2305356,19.3468324 C14.1520005,19.0191447 14.2313615,18.6735869 14.445,18.413 C14.6467429,18.1224016 14.9753249,17.9458446 15.329,17.938 C15.7758301,17.9432422 16.2075433,18.1005495 16.553,18.384 L17.392,18.984 L16.917,19.649 Z M18.302,14.52 C19.314,15.248 19.5473333,15.993 19.002,16.755 L18.552,17.38 L17.409,16.558 C16.4620629,15.7718408 15.2869876,15.3117696 14.058,15.246 C13.0814728,15.2658125 12.1780112,15.7675277 11.645,16.586 C11.1215387,17.2717359 10.901814,18.1419611 11.037,18.994 C11.2152744,19.9169315 11.7667264,20.7252936 12.561,21.228 C13.3995055,21.9960625 14.6208358,22.1769856 15.646,21.685 L14.846,22.793 L17.401,24.63 L21.575,18.825 C22.3446214,17.9251139 22.6776509,16.7313312 22.485,15.563 C22.1012412,14.3527191 21.2919643,13.3224719 20.207,12.663 C19.1851338,11.837792 17.9723634,11.282469 16.68,11.048 L14.997,13.388 C16.1870381,13.4265055 17.3383676,13.8200331 18.303,14.518 L18.302,14.52 Z M30.514,20.7 L28.976,22.483 L30.076,23.431 L24.325,30.1 L26.741,32.183 L32.488,25.519 L34.071,26.883 L35.608,25.101 L34.025,23.736 L34.298,23.419 C34.5704385,23.011424 35.0050489,22.7407488 35.491,22.676 C35.9505548,22.7228568 36.379448,22.928287 36.704,23.257 C37.077956,23.5976772 37.4099654,23.9817203 37.693,24.401 L29.174,34.281 L31.606,36.381 L41.045,25.435 C40.3445916,23.7083106 39.2713481,22.1576906 37.902,20.894 C37.0946226,20.049679 35.9520815,19.6104842 34.7870409,19.6966044 C33.6220003,19.7827245 32.5564555,20.3851415 31.882,21.339 L31.609,21.656 L30.514,20.7 Z M39.986,35.241 C40.4782043,34.8486394 41.0838831,34.6255869 41.713,34.605 C42.2238781,34.6007681 42.7156769,34.7988538 43.081,35.156 C43.8256667,35.8826667 43.7793333,36.7493333 42.942,37.756 L42.757,37.945 L39.986,35.241 Z M39.351,40.523 C38.844729,40.0573423 38.4812686,39.4573551 38.303,38.793 C38.148968,38.1832384 38.2126303,37.5388339 38.483,36.971 L43.175,41.549 C43.6439707,41.2028333 44.0914628,40.8284761 44.515,40.428 C45.5862345,39.4854471 46.2346453,38.1526026 46.315,36.728 C46.2676539,35.4162372 45.6811732,34.1821314 44.694,33.317 C43.7293451,32.3329607 42.3973861,31.7967693 41.02,31.838 C38.6252172,31.840535 36.4819216,33.3248138 35.6372334,35.5656825 C34.7925453,37.8065513 35.422767,40.3362983 37.22,41.919 C38.030355,42.8255073 39.0787294,43.4865444 40.246,43.827 L42.125,41.9 C41.0731812,41.7615359 40.0978318,41.2754452 39.354,40.519 L39.351,40.523 Z M50.026,38.846 L41.837,46.419 L44.022,48.773 L48.101,44.986 C48.6084923,44.4663257 49.2861838,44.1468273 50.01,44.086 C50.6542304,44.0458494 51.280428,44.3079357 51.704,44.795 C51.9929472,45.0943838 52.2133685,45.452995 52.35,45.846 L54.575,43.78 C54.438496,43.5350606 54.2703896,43.3091256 54.075,43.108 C53.6693725,42.6583454 53.1172179,42.3673833 52.517,42.287 C51.8894984,42.2049649 51.2517774,42.3114838 50.685,42.593 L52.2,41.186 L50.026,38.846 Z M54.088,50.146 C54.6163676,49.8040964 55.2410586,49.6420486 55.869,49.684 C56.3780253,49.7292551 56.8481978,49.9749535 57.176,50.367 C57.8426667,51.167 57.7093333,52.0246667 56.776,52.94 L56.576,53.11 L54.088,50.146 Z M52.935,55.339 C52.4770994,54.8260905 52.174649,54.193442 52.063,53.515 C51.9685002,52.8916042 52.0951547,52.2547938 52.421,51.715 L56.639,56.734 C57.1399263,56.4360827 57.6221601,56.107803 58.083,55.751 C59.2416209,54.9174137 60.0178199,53.6542444 60.238,52.244 C60.3197052,50.934356 59.8577232,49.6489825 58.961,48.691 C58.097762,47.6164903 56.8250161,46.9512984 55.45,46.856 C53.0673769,46.624829 50.7901216,47.8914067 49.7297215,50.0375391 C48.6693214,52.1836716 49.0468331,54.7619648 50.678,56.514 C51.3945889,57.4970544 52.3726694,58.2592851 53.501,58.714 L55.556,56.988 C54.5229939,56.7457462 53.6005116,56.1653673 52.935,55.339 Z M66.714,67.85 L73.314,67.95 L71.189,64.925 L65.08,64.915 L72.461,59.731 L70.614,57.102 L58.193,65.828 L60.039,68.456 L64.525,65.3 L62.09,71.366 L64.227,74.408 L66.714,67.85 Z M73.167,78.88 C71.579,79.8553333 70.4206667,79.7486667 69.692,78.56 C69.092,77.5853333 69.3493333,76.7563333 70.464,76.073 L76.202,72.553 L74.522,69.815 L68.165,73.715 C67.2446044,74.1905036 66.5559497,75.0184044 66.256,76.01 C66.0629239,76.9766215 66.273169,77.9801625 66.838,78.788 C67.4483975,80.0675826 68.7924675,80.8302605 70.204,80.698 L68.685,81.63 L70.365,84.368 L79.872,78.535 L78.192,75.797 L73.167,78.88 Z M81.535,81.449 L71.674,86.663 L73.174,89.503 L78.386,86.746 C79.0140972,86.3512684 79.7609547,86.1898622 80.496,86.29 C81.0565248,86.393076 81.5370895,86.7512815 81.796,87.259 C82.0485489,87.6771703 82.1034499,88.1855534 81.946,88.648 C81.7246229,89.1443707 81.3269648,89.5409598 80.83,89.761 L74.956,92.867 L76.456,95.706 L82.856,92.323 C83.8542925,91.8829348 84.6429491,91.0727694 85.056,90.063 C85.350286,89.1061544 85.2229915,88.06925 84.706,87.212 C84.3824413,86.5574391 83.8804851,86.0076445 83.258,85.626 C82.6868946,85.2863063 82.0259907,85.1283172 81.363,85.173 L83.035,84.288 L81.535,81.449 Z M82.047,99.708 C82.405264,99.0099351 83.0062979,98.4668708 83.737,98.181 C84.4597862,97.803321 85.2946244,97.699277 86.088,97.888 C86.730706,98.0528102 87.2618008,98.5042407 87.528,99.112 C87.8032118,99.7184614 87.807212,100.413411 87.539,101.023 C87.2101524,101.740444 86.6109035,102.298713 85.872,102.576 C85.1420158,102.948011 84.3064477,103.058149 83.505,102.888 C82.8438051,102.723872 82.2933704,102.267514 82.0095868,101.648172 C81.7258032,101.028831 81.7395743,100.313952 82.047,99.706 L82.047,99.708 Z M89.286,101.049 C90.0905906,99.9458471 90.2176544,98.4876934 89.616,97.262 C89.1060468,96.0431092 88.0797302,95.1146592 86.816,94.729 C85.3601035,94.3259074 83.8056697,94.4877085 82.464,95.182 C81.1172836,95.7445028 80.0023761,96.749013 79.303,98.03 C78.6302485,99.2237588 78.5846747,100.671286 79.181,101.905 C79.6911412,103.186731 80.8798174,104.071759 82.254,104.193 L80.667,104.903 L81.979,107.835 L96.179,101.483 L94.867,98.551 L89.286,101.049 Z M90.046,110.399 C90.6584517,110.254656 91.3010884,110.311101 91.879,110.56 C92.3420375,110.774598 92.7014836,111.163519 92.879,111.642 C93.243,112.617333 92.8316667,113.381333 91.645,113.934 L91.397,114.027 L90.046,110.399 Z M87.22,114.907 C86.9608573,114.269771 86.8876949,113.572127 87.009,112.895 C87.1301555,112.277694 87.4625258,111.721858 87.949,111.323 L90.242,117.465 C90.8138543,117.351996 91.3782456,117.204053 91.932,117.022 C93.301178,116.624172 94.4537801,115.694166 95.132,114.44 C95.6485611,113.233395 95.6438569,111.86702 95.119,110.664 C94.6652194,109.363967 93.6889329,108.312637 92.426,107.764 C90.2588135,106.747753 87.6889559,107.177985 85.9709327,108.844674 C84.2529095,110.511363 83.7449419,113.066992 84.695,115.264 C85.0413832,116.429323 85.7080178,117.473971 86.619,118.279 L89.134,117.34 C88.2414559,116.76668 87.5663094,115.911306 87.216,114.91 L87.22,114.907 Z M97.587,117.933 L86.949,121.287 L87.921,124.348 L93.221,122.664 C93.9021683,122.410437 94.6518317,122.410437 95.333,122.664 C95.9323833,122.90296 96.3865746,123.407042 96.562,124.028 C96.6957086,124.422313 96.742113,124.840977 96.698,125.255 L99.591,124.336 C99.5719332,124.055315 99.5150873,123.778485 99.422,123.513 C99.2470619,122.933518 98.872144,122.434927 98.364,122.106 C97.8311699,121.76419 97.2089299,121.588098 96.576,121.6 L98.547,120.975 L97.587,117.933 Z" id="Få_flere_kunder"></path>
                                    </g>
                                </g>
                                <g id="arrow#1">
                                    <g>
                                        <mask id="mask-15" fill="white">
                                            <use xlink:href="#path-14"></use>
                                        </mask>
                                        <use id="Mask" fill="url(#linearGradient-13)" xlink:href="#path-14"></use>
                                        <circle id="Oval" fill="url(#linearGradient-16)" opacity="0.25" style="mix-blend-mode: overlay;" mask="url(#mask-15)" cx="239" cy="256" r="200"></circle>
                                    </g>
                                    <g id="-..-og-anbefaler-dig-til-andre" transform="translate(113.500000, 162.500000) rotate(-4.000000) translate(-113.500000, -162.500000) translate(28.000000, 63.000000)" fill="#FFFFFF">
                                        <path d="M9.286,196.37 C9.3371693,195.44018 8.72473777,194.603571 7.82292436,194.371373 C6.92111095,194.139175 5.98080046,194.575985 5.57655835,195.414896 C5.17231624,196.253807 5.41660281,197.261434 6.16014967,197.822077 C6.90369653,198.382721 7.93964869,198.340411 8.635,197.721 C9.02902368,197.379712 9.26459443,196.89084 9.286,196.37 Z M9.693,190.71 C9.77101351,189.781954 9.18288041,188.927941 8.28802915,188.669878 C7.39317789,188.411815 6.44060826,188.821509 6.01246843,189.648584 C5.58432861,190.475658 5.79975205,191.489971 6.52708607,192.071642 C7.25442008,192.653312 8.29127793,192.640485 9.004,192.041 C9.40804094,191.711862 9.65751878,191.229925 9.693,190.71 Z M10.485,172.027 C9.4949104,170.870917 8.10714589,170.128326 6.596,169.946 C5.12829432,169.653094 3.60411702,169.926774 2.33,170.712 C-0.160153874,172.58182 -0.697875811,176.099677 1.12,178.628 C2.11358227,179.820315 3.52514972,180.587985 5.066,180.774 C6.51743386,181.065473 8.0253737,180.788014 9.278,179.999 C10.521412,179.129701 11.3222934,177.759946 11.47,176.25 C11.7917516,174.765846 11.4301732,173.215648 10.485,172.027 Z M6.177,173.265 C6.97779339,173.358608 7.73991914,173.661044 8.387,174.142 C8.90537487,174.538536 9.15097266,175.196831 9.019,175.836 C8.94109578,176.500976 8.49264186,177.06416 7.862,177.289 C6.29219793,177.761414 4.59272916,177.493871 3.244,176.562 C2.7218972,176.162089 2.47316914,175.49972 2.603,174.855 C2.82833333,173.451 4.01966667,172.921 6.177,173.265 Z M9.756,164.626 C9.05373411,164.869763 8.29272116,164.88725 7.58,164.676 C6.85690255,164.557602 6.19090227,164.21023 5.68,163.685 C5.27792109,163.239138 5.12754182,162.620704 5.28,162.04 C5.59866667,160.624 6.732,160.135 8.68,160.573 C9.34163615,160.703366 9.9417045,161.048572 10.387,161.555 C10.8066409,162.033247 10.9590473,162.689796 10.793,163.304 C10.6928746,163.891562 10.3028112,164.388827 9.756,164.626 Z M4.693,159.674 C3.54833525,160.028461 2.70137273,160.998076 2.504,162.18 C2.17790642,163.445555 2.46323677,164.79079 3.275,165.815 C4.16628554,166.9233 5.42552986,167.675156 6.824,167.934 C8.23606124,168.364545 9.76124052,168.217457 11.065,167.525 C12.1045274,166.918012 12.8408803,165.901852 13.094,164.725 C13.4524936,163.554239 13.1537958,162.281145 12.312,161.392 L13.042,161.556 C13.7474821,161.652066 14.3800434,162.040386 14.785,162.626 C15.1045384,163.31454 15.1534422,164.098071 14.922,164.821 C14.6634124,166.163293 13.9443876,167.373222 12.889,168.242 L16.089,168.963 C16.9407977,167.830587 17.5284812,166.521966 17.809,165.133 C18.1807433,163.718483 18.0261628,162.217097 17.374,160.908 C16.6172816,159.584247 15.2959336,158.680012 13.788,158.454 L3.959,156.24 L3.259,159.352 L4.693,159.674 Z M15.079,144.532 C15.4804264,144.635065 15.8286564,144.88482 16.055,145.232 C16.2469324,145.579703 16.2751243,145.994526 16.132,146.365 C16.098232,146.700165 15.9095881,147.000225 15.6221788,147.17593 C15.3347695,147.351634 14.9817046,147.382742 14.668,147.26 C14.3291576,147.158087 14.0596137,146.900068 13.943,146.566 C13.8102173,146.140022 13.826441,145.681527 13.989,145.266 L14.304,144.281 L15.079,144.532 Z M9.774,144.801 C10.1533333,143.613667 10.79,143.162667 11.684,143.448 L12.418,143.682 L11.989,145.024 C11.5343306,146.167477 11.4599948,147.426978 11.777,148.616 C12.0974332,149.539103 12.8543066,150.243546 13.798,150.497 C14.6120286,150.782936 15.5076983,150.722574 16.276,150.33 C17.0983128,149.875363 17.6964336,149.101388 17.929,148.191 C18.4006279,147.15592 18.195139,145.938032 17.41,145.115 L18.71,145.53 L19.667,142.53 L12.856,140.355 C11.7622785,139.901748 10.5242491,139.954445 9.473,140.499 C8.44133588,141.238487 7.71238884,142.326579 7.421,143.562 C6.951753,144.788654 6.79838691,146.113585 6.975,147.415 L9.721,148.291 C9.3900521,147.147419 9.40850885,145.931014 9.774,144.798 L9.774,144.801 Z M10.084,136.13 L20.484,140.153 L21.643,137.153 L16.143,135.027 C15.432899,134.811484 14.8209891,134.353524 14.414,133.733 C14.1261188,133.242586 14.082157,132.646332 14.295,132.119 C14.4445422,131.653575 14.792885,131.278493 15.246,131.095 C15.7657647,130.936158 16.3260051,130.976073 16.818,131.207 L23.018,133.607 L24.176,130.607 L17.425,127.996 C16.4379531,127.530247 15.3086776,127.465717 14.275,127.816 C13.3598568,128.221427 12.6608126,128.997577 12.353,129.95 C12.0709288,130.62377 11.9852959,131.363611 12.106,132.084 C12.2236913,132.737986 12.5375938,133.340678 13.006,133.812 L11.242,133.129 L10.084,136.13 Z M23.712,123.303 C22.9085288,123.463146 22.0744163,123.341667 21.35,122.959 C20.6146916,122.672249 20.0228736,122.105959 19.704,121.384 C19.4438817,120.770748 19.4573385,120.075723 19.741,119.473 C20.0164971,118.870782 20.5532494,118.428404 21.197,118.273 C21.9928311,118.095019 22.8261556,118.210059 23.544,118.597 C24.2707359,118.893747 24.8644369,119.445142 25.214,120.148 C25.5104792,120.759542 25.51301,121.472672 25.220879,122.086303 C24.9287479,122.699934 24.373609,123.147575 23.712,123.303 Z M11.057,121.726 L25.167,128.271 L26.519,125.357 L24.942,124.626 C26.3165197,124.521883 27.5153844,123.6529 28.042,122.379 C28.6546894,121.153561 28.6289176,119.705856 27.973,118.503 C27.2911528,117.212513 26.1899947,116.192831 24.851,115.612 C23.5186896,114.899526 21.9664085,114.716653 20.505,115.1 C19.2381378,115.469874 18.2012091,116.38369 17.675,117.594 C17.0565373,118.811722 17.1639719,120.271909 17.954,121.386 L12.405,118.812 L11.057,121.726 Z M26.343,110.726 C25.8317525,110.358778 25.4523589,109.836673 25.261,109.237 C25.1169288,108.746842 25.1734005,108.219533 25.418,107.771 C25.9146667,106.855667 26.761,106.664 27.957,107.196 L28.189,107.322 L26.343,110.726 Z M31.598,109.897 C31.2878988,110.510741 30.8100734,111.023936 30.22,111.377 C29.6757301,111.690477 29.0394181,111.805013 28.42,111.701 L31.546,105.938 C31.0853529,105.581105 30.6034667,105.252501 30.103,104.954 C28.9032135,104.181177 27.4437307,103.921482 26.051,104.233 C24.8021901,104.6367 23.7751244,105.537508 23.212,106.723 C22.5279014,107.919244 22.3749054,109.346965 22.79,110.661 C23.4476846,112.96276 25.4607057,114.617643 27.8462126,114.817658 C30.2317195,115.017672 32.4922071,113.721105 33.524,111.561 C34.1754224,110.534527 34.5253835,109.345699 34.534,108.13 L32.175,106.85 C32.3286507,107.899646 32.1265857,108.97052 31.601,109.892 L31.598,109.897 Z M25.698,93.331 C24.9993578,94.2669233 24.7554302,95.4660521 25.0329082,96.6005385 C25.3103862,97.7350248 26.0802445,98.6861972 27.132,99.194 L27.49,99.41 L26.736,100.652 L28.749,101.873 L29.502,100.632 L37.025,105.198 L38.68,102.471 L31.157,97.905 L32.241,96.118 L30.229,94.897 L29.145,96.683 L28.787,96.466 C28.3542723,96.2630105 28.0215639,95.8942557 27.864,95.443 C27.8058789,95.0093425 27.9160983,94.5698961 28.172,94.215 C28.3833287,93.8834128 28.6546316,93.5941361 28.972,93.362 L26.753,92.015 C26.3324134,92.3939232 25.9758178,92.838317 25.697,93.331 L25.698,93.331 Z M40.544,92.697 C40.9012092,92.9090438 41.1654221,93.2478791 41.284,93.646 C41.3711966,94.0334118 41.2822059,94.4395465 41.041,94.755 C40.9148844,95.0674107 40.6498422,95.3028056 40.3247262,95.3911524 C39.9996102,95.4794991 39.6518841,95.4106173 39.385,95.205 C39.0883422,95.0125401 38.9022985,94.689196 38.885,94.336 C38.8762105,93.8890798 39.0205296,93.4525941 39.294,93.099 L39.871,92.242 L40.544,92.697 Z M35.376,91.469 C36.0726667,90.435 36.8103333,90.1803333 37.589,90.705 L38.228,91.135 L37.441,92.303 C36.6838249,93.2732122 36.2595156,94.461629 36.231,95.692 C36.2802715,96.667832 36.8093601,97.5560118 37.644,98.064 C38.3454109,98.5658739 39.2216579,98.7588289 40.069,98.598 C40.9858323,98.3911172 41.7769181,97.8156176 42.256,97.007 C42.9985333,96.1446792 43.1422277,94.9175373 42.619,93.907 L43.75,94.669 L45.508,92.061 L39.579,88.061 C38.6561655,87.3191569 37.4528262,87.0227138 36.291,87.251 C35.0939039,87.671929 34.0896845,88.5120347 33.464,89.616 C32.6697568,90.6623998 32.1515199,91.8917938 31.957,93.191 L34.347,94.801 C34.34936,93.6106012 34.7077176,92.4481159 35.376,91.463 L35.376,91.469 Z M48.993,87.359 L36.493,78.11 L34.573,80.688 L47.073,89.937 L48.993,87.359 Z M47.112,78.988 C46.6766045,78.5337807 46.3992218,77.9513122 46.321,77.327 C46.2694217,76.8184151 46.4219328,76.3101647 46.745,75.914 C47.401,75.1046667 48.2676667,75.0713333 49.345,75.814 L49.55,75.98 L47.112,78.988 Z M52.43,79.138 C52.0117779,79.683525 51.4477102,80.0995552 50.803,80.338 C50.2097834,80.5470698 49.5621881,80.5424719 48.972,80.325 L53.102,75.234 C52.7144284,74.7988638 52.301014,74.387453 51.864,74.002 C50.8263849,73.0221244 49.4392581,72.4991152 48.013,72.55 C46.711335,72.7174251 45.5363126,73.4141903 44.765,74.476 C43.8730879,75.5265486 43.4608658,76.9020725 43.628,78.27 C43.8518196,80.6531789 45.5262227,82.64956 47.8340463,83.2848448 C50.14187,83.9201296 52.6020743,83.0619001 54.014,81.129 C54.8423678,80.2393307 55.4046546,79.1351975 55.637,77.942 L53.552,76.251 C53.5098716,77.3108137 53.1149808,78.3261969 52.43,79.136 L52.43,79.138 Z M49.801,68.644 L58.085,76.113 L60.231,73.723 L56.09,70.005 C55.5258913,69.5467462 55.1456923,68.9006565 55.019,68.185 C54.9205755,67.5472419 55.124615,66.9000078 55.571,66.434 C55.8434576,66.1191644 56.1808541,65.8670552 56.56,65.695 L54.301,63.667 C54.0688529,63.8260366 53.8589961,64.0153786 53.677,64.23 C53.2655818,64.6740349 53.0259069,65.2501764 53.001,65.855 C52.9752856,66.4883772 53.1389163,67.1150479 53.471,67.655 L51.933,66.273 L49.801,68.644 Z M67.526,61.317 C66.7486587,61.2092047 66.0374423,60.8212362 65.526,60.226 C64.9311726,59.6679483 64.5573415,58.9142508 64.473,58.103 C64.4163533,57.4420122 64.6671638,56.7917488 65.153,56.34 C65.6347642,55.8803518 66.2890952,55.6469737 66.953,55.698 C67.7383672,55.7728305 68.4626489,56.1540125 68.969,56.759 C69.5613146,57.325417 69.9411629,58.0780531 70.045,58.891 C70.1073547,59.5678485 69.8588659,60.2363756 69.3695633,60.7081753 C68.8802607,61.179975 68.2031293,61.4039577 67.529,61.317 L67.526,61.317 Z M66.401,54.041 C65.0940921,53.6453742 63.6755756,54.0065491 62.717,54.979 C61.7357814,55.8621166 61.1981941,57.1359091 61.25,58.455 C61.3500186,59.9624649 62.015788,61.3765105 63.114,62.414 C64.089677,63.4993296 65.4059746,64.2199073 66.846,64.457 C68.1955636,64.6988197 69.5779595,64.2639254 70.546,63.293 C71.5869098,62.3879759 72.0300468,60.9742681 71.692,59.637 L72.885,60.901 L75.22,58.695 L64.538,47.388 L62.204,49.594 L66.401,54.041 Z M79.77,54.832 L72.516,46.358 L70.076,48.447 L77.33,56.92 L79.77,54.832 Z M70.409,46.367 C71.0935104,45.7868193 71.2722771,44.8036109 70.8358015,44.0196127 C70.3993259,43.2356145 69.4694252,42.869635 68.6156851,43.145845 C67.7619451,43.422055 67.2226385,44.2633663 67.3281032,45.1544563 C67.4335678,46.0455462 68.1543693,46.7377179 69.049,46.807 C69.544637,46.855186 70.03809,46.6958908 70.412,46.367 L70.409,46.367 Z M82.328,48.031 C81.6320278,47.7728501 81.0343875,47.3032007 80.619,46.688 C80.137851,46.1370902 79.845295,45.4468682 79.784,44.718 C79.7582896,44.1183527 80.0365072,43.5461267 80.524,43.196 C81.6713333,42.3046667 82.8566667,42.6466667 84.08,44.222 C84.5081335,44.7429784 84.7518032,45.3910063 84.773,46.065 C84.7928262,46.7015096 84.4924583,47.3056244 83.973,47.674 C83.5212276,48.0629614 82.9034892,48.1972687 82.331,48.031 L82.328,48.031 Z M81.566,40.99 C80.4571235,40.536352 79.1872099,40.7468435 78.284,41.534 C77.226779,42.3045762 76.5916546,43.5259693 76.568,44.834 C76.5521228,46.2555408 77.0463474,47.6356798 77.961,48.724 C78.7775041,49.9543166 80.048899,50.8103052 81.496,51.104 C82.6847667,51.2961055 83.8995102,50.9792632 84.843,50.231 C85.8642675,49.5549246 86.4429893,48.3818191 86.358,47.16 L86.816,47.751 C87.2998143,48.2735421 87.5418397,48.9753068 87.483,49.685 C87.2911662,50.4195084 86.8308603,51.0553728 86.193,51.467 C85.1401493,52.3389005 83.8160059,52.8160024 82.449,52.816 L84.46,55.404 C85.8373222,55.0710091 87.1227088,54.4341243 88.222,53.54 C89.4081229,52.6845328 90.2429351,51.4271614 90.571,50.002 C90.8278044,48.4994519 90.3827464,46.9620121 89.363,45.829 L83.181,37.872 L80.662,39.829 L81.566,40.99 Z M97.066,31.269 L95.776,29.3 L93.605,30.723 L92.158,28.514 L89.471,30.275 L90.918,32.483 L89.575,33.363 L90.865,35.332 L92.208,34.452 L95.008,38.721 C96.3986667,40.8436667 98.155,41.2103333 100.277,39.821 C100.920451,39.4353429 101.480675,38.9254301 101.925,38.321 L100.466,36.094 C100.238551,36.5978147 99.8678034,37.0235139 99.4,37.318 C99.1361227,37.5091324 98.8090021,37.5918073 98.486,37.549 C98.1556737,37.4829033 97.8709397,37.2752924 97.707,36.981 L94.898,32.688 L97.066,31.269 Z M106.588,35.777 L100.814,26.233 L98.066,27.896 L103.839,37.439 L106.588,35.777 Z M98.734,25.898 C99.5045758,25.4372394 99.8418131,24.4959172 99.5391327,23.6506528 C99.2364523,22.8053883 98.3783375,22.2921092 97.4904378,22.4252314 C96.6025381,22.5583536 95.9326814,23.3007203 95.8911972,24.1975851 C95.849713,25.0944499 96.4481802,25.8954826 97.32,26.11 C97.8013193,26.2384623 98.3143538,26.1617062 98.737,25.898 L98.734,25.898 Z M111.862,32.761 L104.312,19.166 L101.505,20.727 L109.063,34.321 L111.862,32.761 Z M122.512,23.088 C122.711309,23.4525856 122.766278,23.8787742 122.666,24.282 C122.543324,24.659677 122.260023,24.9638408 121.892,25.113 C121.624347,25.3179119 121.276193,25.3856897 120.951217,25.2961494 C120.62624,25.2066092 120.361931,24.9700801 120.237,24.657 C120.080675,24.3411444 120.08439,23.9696662 120.247,23.657 C120.466923,23.2680017 120.812987,22.965681 121.228,22.8 L122.162,22.356 L122.512,23.088 Z M118.687,19.402 C119.812333,18.8686667 120.576667,19.0246667 120.98,19.87 L121.311,20.565 L120.04,21.17 C118.894714,21.6193705 117.924762,22.4259102 117.274,23.47 C116.820038,24.3348814 116.823783,25.3684309 117.284,26.23 C117.632233,27.0195923 118.288974,27.6318764 119.101,27.924 C119.995101,28.2127186 120.968711,28.1197354 121.792,27.667 C122.869506,27.3025601 123.617254,26.3196815 123.681,25.184 L124.267,26.416 L127.108,25.064 L124.036,18.608 C123.618581,17.499955 122.733354,16.6326589 121.617,16.238 C120.371671,15.9918572 119.079335,16.2049967 117.979,16.838 C116.763369,17.3350498 115.692206,18.1297392 114.864,19.149 L116.102,21.749 C116.710163,20.7255131 117.610355,19.9071572 118.687,19.399 L118.687,19.402 Z M125.245,13.688 L129.423,24.029 L132.401,22.829 L130.193,17.362 C129.864157,16.6968225 129.779561,15.937228 129.954,15.216 C130.116029,14.6700669 130.522467,14.2303751 131.054,14.026 C131.496496,13.8159865 132.009426,13.8134218 132.454,14.019 C132.925499,14.2895481 133.279463,14.7258549 133.447,15.243 L135.936,21.403 L138.914,20.203 L136.203,13.492 C135.867878,12.4533356 135.142586,11.5853518 134.18,11.071 C133.258645,10.6802107 132.214415,10.7005788 131.309,11.127 C130.624548,11.3820038 130.026182,11.8254045 129.583,12.406 C129.185916,12.9391054 128.960902,13.5806561 128.938,14.245 L128.229,12.49 L125.245,13.688 Z M143.468,15.043 C142.8103,14.6151083 142.331343,13.9619213 142.121,13.206 C141.820231,12.4476999 141.80213,11.6065367 142.07,10.836 C142.300288,10.2141401 142.803578,9.73260406 143.435,9.53 C144.065696,9.31847644 144.756612,9.38538613 145.335,9.714 C146.015123,10.1145183 146.509363,10.7676342 146.71,11.531 C147.00559,12.2953537 147.029596,13.1380583 146.778,13.918 C146.546826,14.557594 146.037363,15.0573689 145.393449,15.2762218 C144.749535,15.4950748 144.041042,15.4092579 143.468,15.043 Z M145.542,7.979 C144.526775,7.06563491 143.089071,6.78995302 141.808,7.263 C140.544561,7.64543465 139.516667,8.56998972 139.003,9.786 C138.452526,11.1930591 138.454312,12.7562025 139.008,14.162 C139.430597,15.5586703 140.315754,16.7700298 141.518,17.597 C142.636652,18.3881919 144.071754,18.5816804 145.36,18.115 C146.687365,17.738625 147.689556,16.6466967 147.951,15.292 L148.495,16.943 L151.545,15.943 L146.679,1.17 L143.628,2.175 L145.542,7.979 Z M151.172,4.485 L154.062,15.258 L157.162,14.42 L155.71,9.047 C155.485762,8.35558753 155.518067,7.60653919 155.801,6.937 C156.0659,6.34861922 156.589101,5.91668298 157.217,5.768 C157.616702,5.65269004 158.036535,5.62472394 158.448,5.686 L157.656,2.756 C157.374637,2.76308972 157.095491,2.80782047 156.826,2.889 C156.238608,3.0393362 155.723897,3.393821 155.374,3.889 C155.009853,4.40652121 154.807318,5.02038892 154.792,5.653 L154.252,3.653 L151.172,4.485 Z M163.064,6.152 C163.007821,5.52524193 163.155476,4.89709311 163.485,4.361 C163.762901,3.93209307 164.199424,3.63077009 164.699,3.523 C165.716333,3.30166667 166.413667,3.818 166.791,5.072 L166.847,5.33 L163.064,6.152 Z M167.121,9.594 C166.453453,9.75966335 165.752578,9.73226646 165.1,9.515 C164.505881,9.30748522 164.002911,8.89895508 163.678,8.36 L170.085,6.969 C170.053811,6.38679513 169.987019,5.80704476 169.885,5.233 C169.687059,3.81920415 168.93065,2.54375445 167.785,1.692 C166.663822,1.00957124 165.311098,0.818960092 164.045,1.165 C162.692423,1.42768528 161.511014,2.24332451 160.786,3.415 C159.470317,5.41501224 159.528875,8.02033112 160.93309,9.95921003 C162.337305,11.8980889 164.794407,12.7662844 167.105,12.14 C168.308062,11.963996 169.437382,11.4532203 170.364,10.666 L169.795,8.043 C169.09949,8.84423498 168.156225,9.3901322 167.115,9.594 L167.121,9.594 Z" id="_.._og_anbefaler_dig_til_andre"></path>
                                    </g>
                                </g>
                            </g>
                        </g>
                    </g>
                </g>
            </g>
        </g>
    </g>
</svg>